<svg width="40" height="40" viewBox="0 0 40 40" fill="none" xmlns="http://www.w3.org/2000/svg">
  <path d="M35.0529 3.20001L22.2459 13.3765L24.7694 7.13725L35.0529 3.20001Z" fill="#E17726" stroke="#E17726" stroke-width="0.25" stroke-linecap="round" stroke-linejoin="round"/>
  <path d="M4.94708 3.20001L17.6694 13.4611L15.2306 7.13725L4.94708 3.20001Z" fill="#E27625" stroke="#E27625" stroke-width="0.25" stroke-linecap="round" stroke-linejoin="round"/>
  <path d="M30.1835 28.0047L26.5741 34.1835L34.3835 36.5176L36.6694 28.1341L30.1835 28.0047Z" fill="#E27625" stroke="#E27625" stroke-width="0.25" stroke-linecap="round" stroke-linejoin="round"/>
  <path d="M3.34119 28.1341L5.6165 36.5176L13.4165 34.1835L9.81649 28.0047L3.34119 28.1341Z" fill="#E27625" stroke="#E27625" stroke-width="0.25" stroke-linecap="round" stroke-linejoin="round"/>
  <path d="M12.9624 17.5435L10.7741 21.0776L18.4894 21.4635L18.2165 13.0776L12.9624 17.5435Z" fill="#E27625" stroke="#E27625" stroke-width="0.25" stroke-linecap="round" stroke-linejoin="round"/>
  <path d="M27.0377 17.5437L21.7082 13L21.4824 21.4635L29.1977 21.0776L27.0377 17.5437Z" fill="#E27625" stroke="#E27625" stroke-width="0.25" stroke-linecap="round" stroke-linejoin="round"/>
  <path d="M13.4165 34.1834L18.0082 31.6834L14.0706 28.1834L13.4165 34.1834Z" fill="#E27625" stroke="#E27625" stroke-width="0.25" stroke-linecap="round" stroke-linejoin="round"/>
  <path d="M21.9918 31.6834L26.5741 34.1834L25.9294 28.1834L21.9918 31.6834Z" fill="#E27625" stroke="#E27625" stroke-width="0.25" stroke-linecap="round" stroke-linejoin="round"/>
  <path d="M26.5741 34.1835L21.9918 31.6835L22.3929 35.0388L22.3459 36.4329L26.5741 34.1835Z" fill="#D5BFB2" stroke="#D5BFB2" stroke-width="0.25" stroke-linecap="round" stroke-linejoin="round"/>
  <path d="M13.4165 34.1835L17.6541 36.4329L17.6165 35.0388L18.0082 31.6835L13.4165 34.1835Z" fill="#D5BFB2" stroke="#D5BFB2" stroke-width="0.25" stroke-linecap="round" stroke-linejoin="round"/>
  <path d="M17.7482 25.9294L14 24.6729L16.6871 23.2788L17.7482 25.9294Z" fill="#233447" stroke="#233447" stroke-width="0.25" stroke-linecap="round" stroke-linejoin="round"/>
  <path d="M22.252 25.9294L23.3129 23.2788L26.0094 24.6729L22.252 25.9294Z" fill="#233447" stroke="#233447" stroke-width="0.25" stroke-linecap="round" stroke-linejoin="round"/>
  <path d="M13.4165 34.1835L14.1 28.0047L9.81653 28.1341L13.4165 34.1835Z" fill="#CC6228" stroke="#CC6228" stroke-width="0.25" stroke-linecap="round" stroke-linejoin="round"/>
  <path d="M25.9 28.0047L26.5741 34.1835L30.1835 28.1341L25.9 28.0047Z" fill="#CC6228" stroke="#CC6228" stroke-width="0.25" stroke-linecap="round" stroke-linejoin="round"/>
  <path d="M29.1977 21.0776L21.4824 21.4635L22.252 25.9294L23.3129 23.2788L26.0094 24.6729L29.1977 21.0776Z" fill="#CC6228" stroke="#CC6228" stroke-width="0.25" stroke-linecap="round" stroke-linejoin="round"/>
  <path d="M14 24.6729L16.6871 23.2788L17.7482 25.9294L18.4894 21.4635L10.7741 21.0776L14 24.6729Z" fill="#CC6228" stroke="#CC6228" stroke-width="0.25" stroke-linecap="round" stroke-linejoin="round"/>
  <path d="M10.7741 21.0776L14.0706 28.1835L14 24.6729L10.7741 21.0776Z" fill="#E27525" stroke="#E27525" stroke-width="0.25" stroke-linecap="round" stroke-linejoin="round"/>
  <path d="M26.0094 24.6729L26 28.1835L29.2977 21.0776L26.0094 24.6729Z" fill="#E27525" stroke="#E27525" stroke-width="0.25" stroke-linecap="round" stroke-linejoin="round"/>
  <path d="M18.4895 21.4635L17.7483 25.9294L18.6895 31.2953L18.9436 24.3529L18.4895 21.4635Z" fill="#E27525" stroke="#E27525" stroke-width="0.25" stroke-linecap="round" stroke-linejoin="round"/>
  <path d="M21.4824 21.4635L21.0377 24.3435L21.3106 31.2953L22.252 25.9294L21.4824 21.4635Z" fill="#E27525" stroke="#E27525" stroke-width="0.25" stroke-linecap="round" stroke-linejoin="round"/>
  <path d="M22.252 25.9294L21.3106 31.2953L21.9918 31.6835L25.9294 28.1835L26 24.6729L22.252 25.9294Z" fill="#F5841F" stroke="#F5841F" stroke-width="0.25" stroke-linecap="round" stroke-linejoin="round"/>
  <path d="M14 24.6729L14.0706 28.1835L18.0082 31.6835L18.6894 31.2953L17.7482 25.9294L14 24.6729Z" fill="#F5841F" stroke="#F5841F" stroke-width="0.25" stroke-linecap="round" stroke-linejoin="round"/>
  <path d="M22.3458 36.4329L22.3929 35.0388L22.0188 34.7188H17.9812L17.6165 35.0388L17.6541 36.4329L13.4165 34.1835L15.1718 35.6247L17.9341 37.6H22.0565L24.8282 35.6247L26.5741 34.1835L22.3458 36.4329Z" fill="#C0AC9D" stroke="#C0AC9D" stroke-width="0.25" stroke-linecap="round" stroke-linejoin="round"/>
  <path d="M21.9918 31.6834L21.3106 31.2952H18.6894L18.0082 31.6834L17.6165 35.0387L17.9812 34.7187H22.0188L22.3929 35.0387L21.9918 31.6834Z" fill="#161616" stroke="#161616" stroke-width="0.25" stroke-linecap="round" stroke-linejoin="round"/>
  <path d="M35.7541 13.9341L36.9541 7.71767L35.0529 3.20001L21.9918 12.8L27.0377 17.5435L34.2353 19.8306L35.8482 17.8247L35.1541 17.3235L36.2823 16.3212L35.4353 15.6741L36.5635 14.8271L35.7541 13.9341Z" fill="#763E1A" stroke="#763E1A" stroke-width="0.25" stroke-linecap="round" stroke-linejoin="round"/>
  <path d="M3.04586 7.71767L4.25527 13.9341L3.42703 14.8271L4.56468 15.6741L3.71762 16.3212L4.84586 17.3235L4.15174 17.8247L5.76468 19.8306L12.9623 17.5435L18.0082 12.8L4.9471 3.20001L3.04586 7.71767Z" fill="#763E1A" stroke="#763E1A" stroke-width="0.25" stroke-linecap="round" stroke-linejoin="round"/>
  <path d="M34.2353 19.8305L27.0377 17.5435L29.1977 21.0776L26 28.1835L30.1835 28.1364H36.6694L34.2353 19.8305Z" fill="#F5841F" stroke="#F5841F" stroke-width="0.25" stroke-linecap="round" stroke-linejoin="round"/>
  <path d="M12.9624 17.5435L5.76474 19.8305L3.34119 28.1364H9.81649L14.0706 28.1835L10.7741 21.0776L12.9624 17.5435Z" fill="#F5841F" stroke="#F5841F" stroke-width="0.25" stroke-linecap="round" stroke-linejoin="round"/>
  <path d="M21.4823 21.4635L21.9917 12.8L24.7734 7.13721H15.2306L18.0082 12.8L18.4894 21.4635L18.6799 24.3623L18.6894 31.2952H21.3106L21.32 24.3623L21.4823 21.4635Z" fill="#F5841F" stroke="#F5841F" stroke-width="0.25" stroke-linecap="round" stroke-linejoin="round"/>
</svg> 