<svg width="40" height="40" viewBox="0 0 40 40" fill="none" xmlns="http://www.w3.org/2000/svg">
  <rect width="40" height="40" rx="20" fill="#3B99FC"/>
  <path d="M14.9406 16.3458C18.4436 12.8848 24.0954 12.8848 27.5984 16.3458L28.0908 16.832C28.3074 17.0485 28.3074 17.4009 28.0908 17.6175L26.7155 18.9806C26.6071 19.089 26.4324 19.089 26.324 18.9806L25.6586 18.3232C23.2048 15.8956 19.3341 15.8956 16.8803 18.3232L16.1733 19.0221C16.0649 19.1305 15.8902 19.1305 15.7818 19.0221L14.4065 17.659C14.1899 17.4424 14.1899 17.0901 14.4065 16.8735L14.9406 16.3458ZM30.5052 19.2304L31.715 20.4241C31.9316 20.6406 31.9316 20.993 31.715 21.2096L24.9462 27.9141C24.7296 28.1307 24.3732 28.1307 24.1566 27.9141L19.4654 23.2642C19.4112 23.21 19.3232 23.21 19.269 23.2642L14.5778 27.9141C14.3612 28.1307 14.0048 28.1307 13.7882 27.9141L7.01934 21.2096C6.80269 20.993 6.80269 20.6406 7.01934 20.4241L8.22917 19.2304C8.44582 19.0138 8.80225 19.0138 9.0189 19.2304L13.7101 23.8803C13.7643 23.9345 13.8523 23.9345 13.9065 23.8803L18.5977 19.2304C18.8144 19.0138 19.1708 19.0138 19.3874 19.2304L24.0786 23.8803C24.1329 23.9345 24.2208 23.9345 24.275 23.8803L28.9662 19.2304C29.1829 19.0138 29.5393 19.0138 29.7559 19.2304H30.5052Z" fill="white"/>
</svg> 